<?xml version="1.0" standalone="no"?><!DOCTYPE svg PUBLIC "-//W3C//DTD SVG 1.1//EN" "http://www.w3.org/Graphics/SVG/1.1/DTD/svg11.dtd"><svg t="1554716418139" class="icon" style="" viewBox="0 0 1024 1024" version="1.1" xmlns="http://www.w3.org/2000/svg" p-id="2025" xmlns:xlink="http://www.w3.org/1999/xlink" width="20" height="20"><defs><style type="text/css"></style></defs><path d="M906.1 316.4L532.5 60.6c-12.6-8.6-29.1-8.6-41.6 0L117.2 316.4c-21.4 14.6-21.4 46.2 0 60.8L490.9 633c12.6 8.6 29.1 8.6 41.6 0l373.6-255.8c21.4-14.6 21.4-46.1 0-60.8zM491.3 700.9L149.9 475.8c-14.8-9.8-34.5-7.6-46.8 5.2-15.8 16.4-13.1 43.1 5.7 56l382.1 261.6c12.6 8.6 29.1 8.6 41.6 0l382.2-261.7c18.8-12.8 21.5-39.4 5.8-55.9l-0.9-0.9c-12.3-12.9-32.1-15.1-47-5.2L532 700.9c-12.3 8.1-28.3 8.1-40.7 0z m0 165.5L149.9 641.3c-14.8-9.8-34.5-7.6-46.8 5.2-15.8 16.4-13.1 43.1 5.7 56l382.1 261.6c12.6 8.6 29.1 8.6 41.6 0l382.2-261.7c18.8-12.8 21.5-39.4 5.8-55.9l-0.9-0.9c-12.3-12.9-32.1-15.1-47-5.2L532 866.4c-12.3 8.1-28.3 8.2-40.7 0z m20.4 13.4" fill="" p-id="2026"></path></svg>